<svg width="56" height="56" viewBox="0 0 56 56" fill="none" xmlns="http://www.w3.org/2000/svg">
    <g clip-path="url(#clip0_17_144)">
        <path d="M28 56C43.464 56 56 43.464 56 28C56 12.536 43.464 0 28 0C12.536 0 0 12.536 0 28C0 43.464 12.536 56 28 56Z" fill="#F52D3B"/>
        <path d="M30.4559 29.3526L14.6051 40.1373C14.3203 40.339 14 40.4221 13.6915 40.4221C12.8373 40.4221 12.0542 39.7458 12.0542 38.7848V17.2153C12.0542 16.2543 12.8492 15.578 13.6915 15.578C14 15.578 14.3203 15.6729 14.6051 15.8628L30.4559 26.6475C31.417 27.3 31.417 28.7 30.4559 29.3526Z" fill="white"/>
        <path d="M47.1254 29.3526L31.2746 40.1373C30.9898 40.339 30.6695 40.4221 30.361 40.4221C29.5068 40.4221 28.7237 39.7458 28.7237 38.7848V31.9746L31.1322 30.3373C31.9034 29.8153 32.3661 28.9373 32.3661 28C32.3661 27.0627 31.9034 26.1966 31.1322 25.6627L28.7119 24.0255V17.2153C28.7119 16.2543 29.5068 15.578 30.3492 15.578C30.6576 15.578 30.978 15.6729 31.2627 15.8628L47.1136 26.6475C48.0864 27.3 48.0864 28.7 47.1254 29.3526Z" fill="white"/>
    </g>
    <defs>
        <clipPath id="clip0_17_144">
            <rect width="56" height="56" fill="white"/>
        </clipPath>
    </defs>
</svg>
