<svg width="17" height="18" viewBox="0 0 17 18" fill="none" xmlns="http://www.w3.org/2000/svg">
    <path d="M1.25 18C1.05109 18 0.860322 17.921 0.71967 17.7803C0.579018 17.6397 0.5 17.4489 0.5 17.25V0.749994C0.500022 0.619666 0.534006 0.491593 0.5986 0.378399C0.663195 0.265205 0.756171 0.170796 0.868365 0.104479C0.980559 0.0381625 1.1081 0.0022257 1.23841 0.000211652C1.36872 -0.0018024 1.49731 0.0301758 1.6115 0.0929939L16.6115 8.34299C16.7291 8.40774 16.8271 8.50285 16.8954 8.61842C16.9637 8.73398 16.9998 8.86576 16.9998 8.99999C16.9998 9.13423 16.9637 9.26601 16.8954 9.38157C16.8271 9.49713 16.7291 9.59225 16.6115 9.65699L1.6115 17.907C1.50076 17.968 1.37641 18 1.25 18ZM2 2.01749V15.9825L14.6937 8.99999L2 2.01749Z" fill="white"/>
</svg>
